<svg width="218" height="174" viewBox="0 0 218 174" fill="none" xmlns="http://www.w3.org/2000/svg">
<path d="M195.009 103C189.943 103.024 184.79 104.234 180.637 107.247C177.107 109.81 174.496 113.408 173.112 117.547C170.401 125.654 172.713 135.238 179.317 140.799C186.983 147.252 199.504 147.884 208.02 142.73C215.575 138.156 219.169 129.145 217.661 120.553C216.032 111.255 208.463 104.618 199.258 103.306C197.847 103.108 196.433 103.007 195.009 103C193.554 102.994 193.551 105.257 195.009 105.263C199.675 105.283 204.314 106.39 208.151 109.137C211.278 111.38 213.603 114.682 214.785 118.337C217.147 125.634 215.125 134.01 209.259 139.061C202.403 144.962 190.88 145.403 183.231 140.83C176.509 136.815 173.173 128.701 174.55 121.057C176.079 112.587 182.811 106.686 191.226 105.509C192.479 105.334 193.742 105.27 195.005 105.263C196.463 105.257 196.467 102.994 195.009 103Z" fill="#5584EB"/>
<path d="M199.877 113.646C198.251 115.317 199.081 117.634 200.337 119.235C201.543 120.768 203.421 122.16 205.39 122.443C206.492 122.601 207.553 122.433 208.433 121.713C209.182 121.101 209.612 120.129 209.565 119.158C209.461 117.029 207.819 115.237 206.176 114.057C204.399 112.779 201.661 111.901 199.877 113.646C199.454 114.06 199.43 114.837 199.877 115.247C200.334 115.667 201.023 115.687 201.476 115.247C201.51 115.213 201.745 115.018 201.57 115.149C201.399 115.281 201.634 115.112 201.681 115.085C201.731 115.055 201.99 114.941 201.785 115.022C201.58 115.102 201.879 114.995 201.926 114.978C202.003 114.954 202.084 114.944 202.165 114.924C202.302 114.887 201.869 114.941 202.138 114.931C202.329 114.924 202.517 114.931 202.709 114.941C202.884 114.948 202.427 114.887 202.706 114.941C202.806 114.961 202.907 114.981 203.005 115.005C203.189 115.052 203.374 115.109 203.552 115.176C203.603 115.196 203.653 115.22 203.707 115.237C203.844 115.281 203.492 115.136 203.619 115.2C203.71 115.244 203.804 115.284 203.895 115.328C204.09 115.425 204.284 115.529 204.469 115.644C204.641 115.748 204.809 115.856 204.973 115.973C205.03 116.014 205.373 116.252 205.087 116.051C205.185 116.118 205.275 116.199 205.366 116.276C205.689 116.552 205.994 116.847 206.277 117.167C206.344 117.244 206.411 117.325 206.478 117.406C206.646 117.607 206.354 117.221 206.529 117.473C206.649 117.644 206.767 117.816 206.871 117.994C206.962 118.149 207.036 118.31 207.12 118.468C207.224 118.66 207.043 118.253 207.09 118.394C207.106 118.441 207.127 118.485 207.143 118.532C207.177 118.623 207.207 118.714 207.231 118.808C207.251 118.882 207.268 118.952 207.284 119.026C207.294 119.07 207.298 119.117 207.308 119.161C207.345 119.295 207.291 118.885 207.288 119.023C207.288 119.161 207.261 119.39 207.288 119.521C207.241 119.306 207.335 119.262 207.305 119.373C207.294 119.413 207.288 119.457 207.278 119.497C207.264 119.548 207.204 119.665 207.21 119.716C207.187 119.564 207.328 119.477 207.264 119.588C207.247 119.618 207.234 119.652 207.217 119.679C207.19 119.729 206.999 120.002 207.133 119.83C207.294 119.622 206.871 120.079 206.871 120.076C206.864 119.995 207.113 119.918 206.945 120.012C206.905 120.035 206.871 120.062 206.831 120.086C206.801 120.102 206.767 120.119 206.737 120.139C206.599 120.224 206.606 120.102 206.811 120.116C206.703 120.109 206.482 120.213 206.371 120.244C206.66 120.234 206.135 120.308 206.371 120.244C206.277 120.247 206.183 120.254 206.088 120.25C206.001 120.25 205.914 120.24 205.826 120.237C205.571 120.224 206.099 120.294 205.803 120.234C205.608 120.193 205.417 120.15 205.228 120.092C205.134 120.062 205.044 120.032 204.953 119.998C204.913 119.985 204.872 119.965 204.832 119.951C204.644 119.884 204.916 119.988 204.919 119.988C204.782 120.012 204.429 119.756 204.308 119.689C204.133 119.595 203.965 119.491 203.797 119.383C203.707 119.326 203.619 119.265 203.532 119.205C203.461 119.154 203.139 118.936 203.418 119.127C203.062 118.885 202.739 118.552 202.444 118.243C202.302 118.095 202.04 117.883 201.966 117.692C201.97 117.705 202.131 117.917 202.02 117.759C201.98 117.705 201.94 117.651 201.903 117.594C201.839 117.503 201.778 117.412 201.721 117.318C201.607 117.137 201.51 116.952 201.416 116.763C201.281 116.498 201.483 116.972 201.385 116.7C201.348 116.599 201.315 116.498 201.285 116.394C201.258 116.303 201.241 116.212 201.217 116.121C201.143 115.798 201.217 116.346 201.211 116.071C201.211 115.983 201.204 115.896 201.207 115.808C201.207 115.775 201.214 115.738 201.214 115.704C201.214 115.513 201.15 115.987 201.201 115.802C201.224 115.721 201.241 115.637 201.261 115.556C201.328 115.297 201.13 115.771 201.261 115.543C201.308 115.462 201.369 115.378 201.409 115.297C201.466 115.183 201.227 115.472 201.332 115.398C201.379 115.365 201.422 115.297 201.463 115.254C201.876 114.83 201.916 114.07 201.463 113.653C201.016 113.243 200.304 113.199 199.864 113.653L199.877 113.646Z" fill="#5584EB"/>
<path d="M186.675 117.352C186.053 117.355 185.395 117.507 184.884 117.876C184.353 118.26 183.98 118.754 183.772 119.38C183.429 120.412 183.745 121.703 184.582 122.409C185.596 123.27 187.179 123.435 188.331 122.732C188.895 122.386 189.278 121.885 189.52 121.279C189.728 120.755 189.732 120.193 189.638 119.649C189.54 119.084 189.208 118.495 188.771 118.125C188.173 117.614 187.457 117.365 186.668 117.359C186.077 117.355 185.509 117.883 185.536 118.492C185.563 119.111 186.033 119.618 186.668 119.625C186.772 119.625 186.88 119.632 186.984 119.645L186.685 119.605C186.873 119.632 187.054 119.675 187.229 119.749L186.96 119.635C187.098 119.696 187.226 119.77 187.343 119.86C187.266 119.8 187.192 119.743 187.115 119.682C187.226 119.77 187.323 119.867 187.41 119.978C187.35 119.901 187.293 119.827 187.232 119.749C187.32 119.867 187.394 119.992 187.454 120.126L187.34 119.857C187.404 120.008 187.444 120.166 187.467 120.328C187.454 120.227 187.441 120.126 187.427 120.029C187.447 120.19 187.447 120.355 187.427 120.516C187.441 120.415 187.454 120.314 187.467 120.217C187.444 120.378 187.404 120.536 187.34 120.688L187.454 120.419C187.397 120.553 187.323 120.678 187.232 120.795C187.293 120.718 187.35 120.644 187.41 120.567C187.323 120.678 187.226 120.775 187.115 120.862C187.192 120.802 187.266 120.745 187.343 120.684C187.226 120.775 187.098 120.849 186.96 120.91L187.229 120.795C187.054 120.869 186.873 120.913 186.685 120.94C186.785 120.926 186.886 120.913 186.984 120.899C186.775 120.923 186.564 120.923 186.352 120.899C186.453 120.913 186.554 120.926 186.651 120.94C186.463 120.913 186.282 120.869 186.107 120.795L186.376 120.91C186.238 120.849 186.11 120.775 185.993 120.684C186.07 120.745 186.144 120.802 186.221 120.862C186.11 120.775 186.013 120.678 185.925 120.567C185.986 120.644 186.043 120.718 186.103 120.795C186.016 120.678 185.942 120.553 185.882 120.419L185.996 120.688C185.932 120.536 185.892 120.378 185.868 120.217C185.882 120.318 185.895 120.419 185.909 120.516C185.888 120.355 185.888 120.19 185.909 120.029C185.895 120.129 185.882 120.23 185.868 120.328C185.892 120.166 185.932 120.008 185.996 119.857L185.882 120.126C185.939 119.992 186.013 119.867 186.103 119.749L185.925 119.978C186.013 119.867 186.11 119.77 186.221 119.682C186.144 119.743 186.07 119.8 185.993 119.86C186.11 119.77 186.238 119.696 186.376 119.635L186.107 119.749C186.282 119.675 186.463 119.632 186.651 119.605L186.352 119.645C186.456 119.632 186.56 119.625 186.668 119.625C187.259 119.622 187.827 119.107 187.8 118.492C187.773 117.883 187.303 117.355 186.668 117.359L186.675 117.352Z" fill="#5584EB"/>
<path d="M200.777 127.08C199.212 126.579 197.284 126.754 196.178 128.102C195.174 129.326 195.043 131.102 195.983 132.413C197.095 133.963 199.178 134.72 201.039 134.404C202.645 134.128 203.831 132.793 203.989 131.192C204.066 130.406 203.824 129.548 203.367 128.906C202.726 128.001 201.815 127.433 200.774 127.083C200.213 126.895 199.514 127.298 199.383 127.873C199.242 128.499 199.571 129.064 200.173 129.266C200.263 129.296 200.357 129.33 200.448 129.363C200.542 129.397 200.623 129.481 200.381 129.333C200.414 129.353 200.458 129.366 200.492 129.383C200.646 129.457 200.801 129.541 200.945 129.636C201.012 129.679 201.076 129.73 201.147 129.773C201.258 129.847 200.945 129.602 201.043 129.693C201.073 129.723 201.11 129.746 201.14 129.777C201.251 129.874 201.352 129.982 201.449 130.093C201.627 130.288 201.305 129.878 201.429 130.066C201.466 130.123 201.506 130.177 201.54 130.237C201.57 130.288 201.6 130.342 201.627 130.392C201.641 130.419 201.651 130.446 201.664 130.469C201.751 130.627 201.563 130.187 201.617 130.358C201.654 130.473 201.694 130.584 201.721 130.701C201.735 130.762 201.741 130.826 201.755 130.883C201.657 130.496 201.731 130.695 201.738 130.826C201.741 130.94 201.735 131.055 201.728 131.169C201.721 131.303 201.785 130.833 201.751 131.007C201.745 131.034 201.741 131.061 201.738 131.085C201.725 131.149 201.708 131.216 201.691 131.28C201.678 131.33 201.657 131.381 201.641 131.431C201.563 131.663 201.768 131.172 201.671 131.364C201.614 131.478 201.55 131.586 201.479 131.693C201.355 131.892 201.644 131.508 201.533 131.626C201.493 131.67 201.453 131.72 201.412 131.764C201.369 131.808 201.325 131.851 201.278 131.892C201.258 131.909 201.234 131.929 201.214 131.946C201.09 132.06 201.463 131.771 201.308 131.872C201.204 131.939 201.106 132.006 200.996 132.063C200.898 132.114 200.676 132.164 201.043 132.05C200.969 132.073 200.902 132.104 200.828 132.127C200.707 132.164 200.582 132.188 200.458 132.215C200.304 132.248 200.791 132.184 200.485 132.208C200.398 132.215 200.31 132.218 200.226 132.218C200.068 132.218 199.914 132.198 199.759 132.191C200.146 132.205 199.843 132.201 199.739 132.181C199.638 132.161 199.538 132.137 199.437 132.11C199.259 132.063 199.084 132.006 198.913 131.942C198.876 131.929 198.836 131.909 198.795 131.895C199.088 131.986 198.95 131.962 198.869 131.922C198.782 131.878 198.694 131.835 198.607 131.788C198.469 131.71 198.338 131.623 198.211 131.535C198.07 131.438 198.311 131.613 198.315 131.616C198.285 131.586 198.248 131.562 198.217 131.532C198.154 131.478 198.093 131.421 198.036 131.361C197.986 131.31 197.939 131.253 197.888 131.199C197.868 131.179 197.851 131.142 197.828 131.125C197.828 131.125 198.002 131.377 197.922 131.243C197.851 131.129 197.774 131.018 197.71 130.896C197.693 130.863 197.68 130.829 197.663 130.799C197.599 130.681 197.777 131.102 197.717 130.93C197.7 130.876 197.677 130.823 197.66 130.769C197.623 130.648 197.603 130.527 197.576 130.402C197.663 130.809 197.599 130.594 197.593 130.48C197.593 130.419 197.589 130.358 197.593 130.298C197.593 130.244 197.603 130.19 197.603 130.137C197.603 129.989 197.576 130.321 197.576 130.318C197.593 130.291 197.589 130.234 197.596 130.2C197.619 130.083 197.656 129.968 197.693 129.854C197.767 129.632 197.579 130.083 197.656 129.942C197.687 129.881 197.714 129.82 197.747 129.763C197.781 129.706 197.818 129.649 197.855 129.592C197.986 129.387 197.663 129.807 197.824 129.629C197.918 129.528 198.016 129.434 198.117 129.34C198.248 129.222 197.895 129.498 198.002 129.427C198.033 129.407 198.06 129.387 198.09 129.366C198.15 129.326 198.211 129.289 198.275 129.256C198.338 129.219 198.409 129.192 198.473 129.158C198.137 129.346 198.342 129.212 198.456 129.175C198.53 129.151 198.604 129.128 198.681 129.111C198.738 129.097 199.057 129.047 198.819 129.077C198.58 129.108 198.893 129.074 198.946 129.071C199.034 129.067 199.121 129.064 199.212 129.067C199.303 129.067 199.397 129.077 199.487 129.084C199.538 129.087 199.672 129.108 199.481 129.081C199.262 129.05 199.487 129.081 199.534 129.091C199.753 129.131 199.964 129.188 200.173 129.256C200.737 129.437 201.432 129.044 201.563 128.465C201.704 127.847 201.379 127.265 200.774 127.073L200.777 127.08Z" fill="#5584EB"/>
<path d="M178.985 129.844C178.918 130.247 178.877 130.641 178.931 131.048C178.995 131.552 179.113 131.983 179.314 132.447C179.637 133.18 180.194 133.788 180.86 134.229C181.353 134.555 182.133 134.343 182.408 133.822C182.707 133.254 182.532 132.622 182.002 132.275C181.938 132.235 181.877 132.191 181.817 132.144C181.894 132.205 181.968 132.262 182.045 132.322C181.844 132.164 181.662 131.983 181.501 131.781C181.562 131.858 181.619 131.932 181.679 132.01C181.515 131.791 181.377 131.559 181.266 131.307L181.38 131.576C181.269 131.31 181.192 131.034 181.152 130.749C181.165 130.849 181.179 130.95 181.192 131.048C181.158 130.775 181.155 130.506 181.192 130.234C181.179 130.335 181.165 130.436 181.152 130.533C181.155 130.503 181.162 130.473 181.165 130.443C181.216 130.133 181.216 129.851 181.051 129.572C180.913 129.336 180.645 129.114 180.376 129.05C180.087 128.983 179.761 129 179.506 129.165C179.274 129.316 179.032 129.555 178.985 129.841V129.844Z" fill="#5584EB"/>
<path d="M185.892 138.002H186.339C186.493 138.008 186.641 137.975 186.775 137.904C186.916 137.857 187.037 137.78 187.138 137.669C187.249 137.568 187.326 137.443 187.373 137.306C187.444 137.171 187.477 137.027 187.471 136.868L187.43 136.569C187.377 136.378 187.279 136.209 187.138 136.068C187.061 136.008 186.987 135.95 186.91 135.89C186.735 135.789 186.544 135.735 186.339 135.735H185.892C185.737 135.729 185.59 135.762 185.455 135.833C185.314 135.88 185.193 135.957 185.092 136.068C184.981 136.169 184.904 136.293 184.857 136.431C184.787 136.566 184.753 136.71 184.76 136.868L184.8 137.168C184.854 137.359 184.951 137.528 185.092 137.669C185.17 137.729 185.243 137.786 185.321 137.847C185.495 137.948 185.687 138.002 185.892 138.002Z" fill="#5584EB"/>
<path d="M123.122 40.4247C123.268 40.5217 123.171 40.5217 123.171 40.352C123.171 40.1337 123.219 39.9397 123.292 39.6972C123.486 39.0425 123.778 38.4362 124.069 37.8057C124.749 36.375 125.551 35.017 126.182 33.562C126.522 32.7375 127.105 31.3067 126.085 30.7247C125.599 30.458 125.089 30.6762 124.628 30.8945C123.146 31.622 121.81 32.6647 120.499 33.6347C118.191 35.3322 115.957 37.1267 113.747 38.9697C107.917 43.8197 102.355 49.0092 97.2059 54.5625C92.3239 59.8247 87.4662 65.572 84.3815 72.1195C81.4668 78.376 80.6653 86.7665 85.5473 92.2955C90.6965 98.1155 99.6105 97.8487 106.29 95.3025C111.293 93.3867 115.471 90.113 119.552 86.7422C124.385 82.741 129.048 78.5457 133.639 74.2777C139.08 69.2337 144.447 64.117 149.742 58.9275C154.892 53.8835 159.992 48.7667 165.02 43.6015C168.955 39.5517 172.865 35.4535 176.63 31.234C177.844 29.876 179.059 28.4937 180.176 27.063C180.783 26.287 181.585 25.4382 181.901 24.4682C182.095 23.8862 181.876 23.4012 181.415 23.0132C180.37 22.1402 178.67 22.4555 177.431 22.6252C176.727 22.7222 176.023 22.8192 175.294 22.8192C175.051 22.8192 174.784 22.8192 174.565 22.7222C174.444 22.6737 174.444 22.6737 174.395 22.5282C174.201 21.6552 175.1 20.5397 175.561 19.8365C177.431 17.0477 179.642 14.5015 181.706 11.8582C183.576 9.43324 185.738 6.86274 186.758 3.92849C187.341 2.25524 186.977 -1.01402e-05 184.767 0.0969899C182.629 0.19399 180.468 1.67324 178.743 2.78874C173.448 6.15949 168.639 10.2577 163.514 13.8467C162.664 14.453 161.79 15.0592 160.867 15.5685C160.502 15.7625 160.332 15.8595 160.065 15.9565C160.016 15.9565 159.944 15.9807 159.895 16.005C159.968 16.005 159.725 16.0535 159.895 16.005C159.676 16.0535 159.871 16.005 159.968 16.0535C159.919 16.0292 160.138 16.1747 160.114 16.199C160.114 16.199 159.992 15.8595 159.992 15.811C159.944 15.423 160.065 15.0107 160.211 14.647C160.527 13.8467 161.037 13.1435 161.401 12.3675C161.692 11.7127 161.96 10.961 161.62 10.282C161.401 9.86974 161.012 9.50599 160.527 9.48174C159.458 9.48174 158.219 10.6457 157.442 11.2277C155.547 12.6585 153.726 14.2105 151.928 15.7625C146.998 19.982 142.189 24.3227 137.331 28.615C133.323 32.1555 129.316 35.8657 125.041 39.0667C124.506 39.4547 123.972 39.867 123.413 40.1822C123.316 40.2307 123.195 40.3035 123.098 40.352C122.903 40.4732 123.073 40.352 123.001 40.4005C122.806 40.5217 122.855 40.3277 122.976 40.4247C122.855 40.3277 123.171 40.4975 123.171 40.4975C122.369 40.0125 121.64 41.2735 122.442 41.7342C123.341 42.2677 124.676 41.0795 125.332 40.6187C127.057 39.3577 128.708 37.9755 130.336 36.5932C135.121 32.5435 139.784 28.3482 144.472 24.1772C148.698 20.4427 152.9 16.6355 157.32 13.1192C157.952 12.61 158.608 12.125 159.288 11.64C159.531 11.4702 159.798 11.3005 160.041 11.155C160.138 11.1065 160.235 11.058 160.332 10.9852C160.551 10.864 160.332 10.9852 160.454 10.9367C160.624 10.8155 160.624 11.0095 160.454 10.9125C160.575 10.9852 160.284 10.8397 160.259 10.864C160.259 10.864 160.259 11.252 160.259 11.3005C160.162 11.6642 159.968 11.9795 159.774 12.2947C159.069 13.5557 157.879 15.4715 158.851 16.9265C159.749 18.236 161.935 16.6112 162.81 16.0535C165.117 14.5742 167.279 12.8767 169.489 11.2035C172.088 9.23924 174.663 7.27499 177.334 5.43199C179.326 4.04974 181.463 2.49774 183.795 1.74599C183.989 1.67324 184.184 1.62474 184.354 1.57624C184.621 1.50349 184.597 1.50349 184.791 1.50349C184.864 1.50349 185.252 1.50349 185.058 1.50349C185.131 1.50349 185.204 1.50349 185.252 1.55199C185.325 1.57624 185.155 1.47924 185.325 1.57624C185.471 1.67324 185.228 1.47924 185.374 1.60049C185.374 1.60049 185.568 1.81874 185.471 1.72174C185.592 1.89149 185.592 1.89149 185.617 2.10974C185.641 2.35224 185.568 2.83724 185.471 3.22524C185.107 4.46199 184.378 5.60174 183.698 6.66874C182.775 8.09949 181.755 9.48174 180.71 10.8155C178.67 13.4587 176.484 15.9807 174.59 18.721C173.57 20.2002 171.554 23.7165 174.687 24.1772C176.096 24.3955 177.553 23.959 178.986 23.8862C179.472 23.862 180.055 23.8377 180.492 24.0802C180.71 24.2015 180.589 24.347 180.589 24.153C180.589 24.1045 180.589 23.8377 180.589 23.9105C180.589 23.9347 180.565 24.0317 180.54 24.056C180.613 23.959 180.589 23.959 180.54 24.1045C180.443 24.2742 180.37 24.4197 180.249 24.5895C180.128 24.7835 179.982 24.9775 179.836 25.1715C179.763 25.2685 179.666 25.3897 179.593 25.4867C179.52 25.5837 179.326 25.8505 179.375 25.7777C176.824 29.0515 173.958 32.0827 171.141 35.114C166.793 39.77 162.348 44.329 157.855 48.8637C152.681 54.0775 147.435 59.2427 142.14 64.3352C137.112 69.161 132.012 73.9625 126.79 78.6185C122.806 82.1832 118.774 85.7237 114.499 88.949C109.375 92.8047 103.351 95.7875 96.793 95.5935C93.4169 95.4965 89.9679 94.478 87.4419 92.15C84.7944 89.7007 83.6042 86.233 83.5314 82.6925C83.3614 75.8055 86.8589 69.8157 90.8423 64.4322C95.3843 58.2727 100.776 52.7195 106.363 47.4815C111.05 43.0922 115.932 38.8485 121.082 35.0412C122.418 34.047 123.778 33.0042 125.259 32.2525C125.357 32.204 125.454 32.1555 125.527 32.107C125.672 32.0342 125.405 32.1555 125.502 32.107C125.551 32.107 125.575 32.0827 125.624 32.0585C125.672 32.0827 125.794 31.9857 125.624 32.0585C125.697 32.0827 125.186 31.816 125.284 31.8402C125.284 31.8402 125.308 31.7917 125.284 31.9372C125.284 32.01 125.284 32.01 125.235 32.1312C125.162 32.398 125.065 32.6647 124.968 32.9072C124.701 33.562 124.385 34.1925 124.045 34.823C123.389 36.1325 122.66 37.4177 122.15 38.8C121.786 39.77 121.495 41.0067 122.466 41.71C123.219 42.2677 123.948 41.0067 123.195 40.4732L123.122 40.4247Z" fill="#5584EB"/>
<path d="M117.414 57.5695C114.961 55.7022 119.867 50.6825 117.414 49.4457C114.961 48.1847 94.1698 68.8457 92.9554 76.339C91.741 83.8565 98.4689 90.7192 112.532 79.4672C126.595 68.2152 171.238 27.548 169.416 25.0502C167.57 22.5525 150.447 36.9327 148.625 35.696C146.779 34.435 150.471 30.07 149.232 29.4395C147.994 28.809 119.867 59.461 117.438 57.5937L117.414 57.5695Z" fill="#5584EB"/>
<path d="M117.924 57.0602C117.147 56.4297 117.463 55.4112 117.73 54.5625C118.07 53.5197 118.556 52.5255 118.774 51.4342C119.041 50.0035 118.288 48.2817 116.588 48.7425C115.422 49.0577 114.354 49.9065 113.431 50.6097C111.803 51.8465 110.273 53.1802 108.767 54.5867C105.124 57.9817 101.675 61.6677 98.5418 65.5477C97.1088 67.3422 95.7 69.1852 94.5099 71.1252C93.6355 72.556 92.7368 74.0837 92.3482 75.7327C91.5466 79.1035 92.5425 83.1775 95.6271 85.069C100.121 87.8092 105.998 84.875 109.836 82.3287C113.334 80.0007 116.54 77.115 119.746 74.3747C123.292 71.3435 126.79 68.2637 130.287 65.1355C138.132 58.1515 145.88 51.0462 153.459 43.7712C156.665 40.6915 159.846 37.5875 162.931 34.4107C164.996 32.2767 167.084 30.1185 168.882 27.7662C169.586 26.8447 171.262 24.5895 169.173 24.0802C167.91 23.765 166.404 24.638 165.36 25.1715C163.514 26.1172 161.741 27.257 159.992 28.3967C158.122 29.6092 156.276 30.8702 154.381 32.0827C152.924 33.0285 151.443 34.0227 149.84 34.7502C149.669 34.823 149.475 34.8957 149.232 34.9685C149.184 34.9685 148.844 35.0655 149.062 35.017C148.941 35.0412 148.771 34.9442 148.965 35.017C148.892 34.9927 148.965 35.114 148.965 34.9927C148.965 34.92 148.868 34.7987 148.844 34.7017C148.747 34.2167 149.014 33.5862 149.159 33.1497C149.499 32.204 150.01 31.3067 150.18 30.3125C150.301 29.6335 150.058 28.6877 149.208 28.6635C148.528 28.6635 147.848 29.391 147.362 29.779C146.366 30.6277 145.419 31.525 144.472 32.4465C141.581 35.211 138.74 38.0725 135.874 40.8855C132.692 44.038 129.51 47.1662 126.231 50.1975C123.923 52.3557 121.567 54.6837 118.871 56.357C118.701 56.4782 118.507 56.5752 118.337 56.6722C118.264 56.7207 118.167 56.745 118.094 56.7935C118.046 56.7935 118.167 56.7692 117.973 56.842C117.9 56.8662 117.827 56.8905 117.754 56.9147C117.803 56.842 117.608 56.9632 117.754 56.9147C117.73 56.9632 117.681 56.9147 117.778 56.9147C117.948 57.0117 117.633 56.9147 117.778 56.9147C117.025 56.3812 116.297 57.618 117.05 58.1515C117.681 58.6122 118.604 58.1515 119.187 57.8362C120.232 57.2542 121.179 56.5025 122.078 55.7507C125.016 53.3742 127.737 50.7552 130.457 48.1605C136.116 42.7285 141.533 36.9812 147.338 31.6947C147.726 31.3552 148.115 30.9915 148.504 30.6762C148.844 30.3852 148.819 30.4095 149.208 30.1427C149.257 30.1185 149.305 30.0942 149.329 30.07C149.427 29.9972 149.184 30.07 149.281 30.07C149.257 30.07 149.038 30.07 148.917 30.0215C148.917 30.0215 148.601 29.8275 148.722 29.8275V29.9487C148.552 30.3125 148.479 30.7732 148.334 31.1612C148.115 31.6947 147.896 32.204 147.702 32.7375C147.265 33.9742 146.998 36.5447 149.014 36.4235C150.277 36.3507 151.54 35.4535 152.584 34.823C156.227 32.6405 159.652 30.1427 163.295 27.9117C164.704 27.063 166.161 26.1172 167.716 25.608C167.959 25.5352 168.202 25.4625 168.469 25.414C168.517 25.414 168.736 25.4382 168.809 25.414C168.809 25.414 168.785 25.414 168.76 25.3655C168.663 25.1472 168.688 25.1472 168.712 25.0745C168.663 25.1472 168.663 25.2685 168.615 25.3655C168.688 25.1472 168.542 25.511 168.493 25.608C168.299 25.9475 168.08 26.2627 167.862 26.578C167.279 27.3782 166.502 28.2755 165.773 29.1242C163.417 31.7917 160.915 34.3137 158.413 36.8115C151.418 43.7712 144.18 50.5127 136.869 57.1572C130.044 63.3652 123.171 69.5005 116.127 75.4417C112.435 78.5457 108.67 81.9165 104.104 83.6625C100.606 84.9962 96.0401 85.2145 94.1941 81.3102C92.7125 78.2062 93.7812 75.0052 95.4328 72.2407C97.8131 68.2637 100.874 64.699 104.007 61.3282C107.019 58.0545 110.2 54.8535 113.722 52.1132C114.281 51.6767 114.864 51.2402 115.495 50.8522C115.884 50.6097 116.515 50.246 116.758 50.149C116.831 50.1247 116.928 50.1005 117.001 50.0762C117.22 50.0035 116.977 50.0762 117.098 50.0762C117.293 50.0762 117.147 50.0762 117.123 50.0762C116.953 50.0277 117.171 50.052 117.268 50.1975C117.633 50.8765 117.147 51.8707 116.904 52.5497C116.297 54.223 115.18 56.648 116.904 58.0545C117.608 58.6365 118.653 57.618 117.924 57.036V57.0602Z" fill="#5584EB"/>
<path d="M99.5862 78.7882C101.529 80.2675 104.347 80.0977 106.241 78.6185C106.557 78.376 106.484 77.8425 106.241 77.6C105.95 77.309 105.537 77.3575 105.221 77.6C104.565 78.1335 103.667 78.376 102.817 78.376C101.918 78.376 101.068 78.1092 100.339 77.5515C100.023 77.309 99.5376 77.503 99.3433 77.8182C99.1247 78.182 99.2947 78.57 99.6105 78.8125L99.5862 78.7882Z" fill="#5584EB"/>
<path d="M110.419 75.8297C111.342 75.8297 111.342 74.3747 110.419 74.3747C109.496 74.3747 109.496 75.8297 110.419 75.8297Z" fill="#5584EB"/>
<path d="M137.039 53.3257C140.148 50.343 143.282 47.336 146.391 44.3532C147.071 43.6985 146.05 42.68 145.37 43.3347L136.019 52.3072C135.339 52.962 136.359 53.9805 137.039 53.3257Z" fill="#5584EB"/>
<path d="M168.517 16.6355L176.314 10.1365C176.606 9.89399 176.581 9.38474 176.314 9.11799C176.023 8.82699 175.586 8.87549 175.294 9.11799L167.497 15.617C167.206 15.8595 167.23 16.3687 167.497 16.6355C167.789 16.9265 168.226 16.878 168.517 16.6355Z" fill="#5584EB"/>
<path d="M178.913 8.29349C179.836 8.29349 179.836 6.83849 178.913 6.83849C177.99 6.83849 177.99 8.29349 178.913 8.29349Z" fill="#5584EB"/>
<path d="M107.601 51.1432C109.156 49.082 110.953 47.239 112.969 45.6142C113.285 45.3717 113.236 44.8382 112.969 44.5957C112.678 44.3047 112.241 44.3532 111.949 44.5957C109.836 46.2932 107.99 48.2575 106.363 50.4157C106.12 50.731 106.314 51.216 106.63 51.41C106.994 51.6282 107.383 51.4585 107.626 51.1432H107.601Z" fill="#5584EB"/>
<path d="M143.33 29.2697L151.491 21.6795C152.171 21.049 151.151 20.0305 150.471 20.661L142.31 28.2512C141.63 28.8817 142.65 29.9002 143.33 29.2697Z" fill="#5584EB"/>
<path d="M116.88 42.195V41.904C116.88 41.904 116.88 41.71 116.807 41.6372C116.783 41.5402 116.734 41.4675 116.661 41.3947C116.588 41.322 116.515 41.2735 116.418 41.2492C116.321 41.2007 116.248 41.1765 116.151 41.1765H115.957C115.835 41.225 115.738 41.2977 115.641 41.3947L115.52 41.5402C115.52 41.5402 115.422 41.7827 115.422 41.904V42.195C115.422 42.195 115.422 42.389 115.495 42.4617C115.52 42.5587 115.568 42.6315 115.641 42.7042C115.714 42.777 115.787 42.8255 115.884 42.8497C115.981 42.8982 116.054 42.9225 116.151 42.9225H116.345C116.467 42.874 116.564 42.8012 116.661 42.7042L116.783 42.5587C116.783 42.5587 116.88 42.3162 116.88 42.195Z" fill="#5584EB"/>
<path d="M142.286 60.237C150.835 52.8892 159.021 45.1292 166.817 36.9812C167.449 36.3022 166.429 35.2837 165.797 35.9627C158.001 44.1107 149.815 51.8707 141.266 59.2185C140.561 59.8247 141.581 60.8432 142.286 60.237Z" fill="#5584EB"/>
<path d="M132.716 69.0155L134.708 66.7117C134.829 66.5662 134.926 66.3965 134.926 66.2025C134.926 66.0327 134.853 65.8145 134.708 65.6932C134.44 65.4507 133.955 65.378 133.688 65.6932L131.696 67.997C131.574 68.1425 131.477 68.3122 131.477 68.5062C131.477 68.676 131.55 68.8942 131.696 69.0155C131.963 69.258 132.449 69.3307 132.716 69.0155Z" fill="#5584EB"/>
<path d="M91.0609 68.967C89.1421 72.4347 88.0491 76.2905 87.9033 80.2675C87.8791 81.189 89.3121 81.189 89.3607 80.2675C89.5064 76.5572 90.5022 72.944 92.3239 69.6945C92.7854 68.87 91.5224 68.1425 91.0852 68.967H91.0609Z" fill="#5584EB"/>
<path d="M85.8388 75.7327C85.353 77.1877 85.183 78.7397 85.353 80.2432C85.4016 80.607 85.6688 80.995 86.0817 80.9707C86.446 80.9707 86.8346 80.6555 86.8104 80.2432C86.6646 78.7882 86.8104 77.503 87.2476 76.1207C87.369 75.757 87.1018 75.3205 86.7375 75.2235C86.3489 75.1265 85.9845 75.3447 85.8388 75.7327Z" fill="#5584EB"/>
<path d="M92.3725 89.6522C97.4731 91.5437 102.914 89.6522 107.747 87.785C108.597 87.4455 108.233 86.0632 107.359 86.4027C102.768 88.173 97.6188 90.0645 92.7611 88.27C91.8867 87.9547 91.5224 89.337 92.3725 89.6522Z" fill="#5584EB"/>
<path d="M112.216 85.7237L114.257 84.3415C114.402 84.2445 114.548 84.099 114.597 83.905C114.645 83.7352 114.621 83.4927 114.524 83.3472C114.329 83.032 113.868 82.8622 113.528 83.0805L111.488 84.4627C111.342 84.5597 111.196 84.7052 111.148 84.8992C111.099 85.069 111.123 85.3115 111.22 85.457C111.415 85.7722 111.876 85.942 112.216 85.7237Z" fill="#5584EB"/>
<path d="M10.4719 156.776C15.1342 154.583 18.529 150.166 19.4437 145.111C19.7863 143.228 16.9329 142.438 16.5181 144.348C15.859 147.391 15.7845 150.827 17.5926 153.525C19.2597 156.015 22.1135 157.374 25.0792 156.826C24.8069 155.859 24.5345 154.892 24.2567 153.928C16.9351 156.864 11.4485 163.497 10.3052 171.333C10.08 172.873 12.2529 174.118 13.0782 172.468C14.457 169.709 15.1456 166.66 14.986 163.57C14.9092 162.049 14.642 160.51 14.1801 159.06C13.9703 158.404 13.7157 157.761 13.4338 157.133C13.2597 156.75 13.0801 156.371 12.8753 155.999L12.6695 155.631C12.4463 155.009 12.1935 155.142 11.9165 156.026C11.41 156.027 10.9034 156.029 10.3968 156.031C10.2675 155.637 10.1425 155.244 10.012 154.854C10.4903 154.48 10.9729 154.107 11.4524 153.729C11.4044 153.735 11.3509 153.744 11.303 153.75C9.40727 154.022 9.42488 157.034 11.3489 156.76L11.4983 156.739C12.1495 156.645 12.7788 156.315 12.9387 155.613C13.3188 153.925 11.2943 152.413 9.91534 153.73C8.33864 155.235 10.3321 157.418 10.9182 158.874C12.4824 162.755 12.3313 167.215 10.4655 170.95C11.388 171.329 12.3148 171.71 13.2385 172.084C14.2204 165.366 18.7089 159.373 25.0858 156.819C26.8799 156.1 26.2 153.562 24.2633 153.921C22.3898 154.268 20.5958 152.922 19.7987 151.315C18.8453 149.399 19.0149 147.129 19.4492 145.108L16.5236 144.345C15.7339 148.707 12.9664 152.286 8.94077 154.173C7.17955 154.998 8.72707 157.591 10.473 156.771L10.4719 156.776Z" fill="#5584EB"/>
<path d="M114.515 165.789C112.695 161.465 110.486 157.275 107.856 153.293C106.497 154.26 105.141 155.235 103.782 156.202C107.219 158.81 111.008 161.017 115.102 162.697L117.04 158.363C112.363 157.274 107.134 158.083 103.241 160.664C104.549 161.533 105.85 162.405 107.156 163.268C107.205 163.139 107.261 163.009 107.312 162.887C107.217 163.1 107.2 163.126 107.273 162.969C107.383 162.753 107.483 162.531 107.593 162.314C107.785 161.946 107.994 161.581 108.212 161.221C108.471 160.806 108.747 160.395 109.044 160.001C109.169 159.831 109.303 159.666 109.436 159.495C109.113 159.91 109.585 159.326 109.656 159.243C110.273 158.549 110.945 157.9 111.673 157.302C111.865 157.138 112.068 156.985 112.269 156.825C112.359 156.751 112.893 156.384 112.447 156.693C112.867 156.405 113.299 156.129 113.751 155.863L109.751 153.862C109.708 157.82 109.665 161.778 109.63 165.734C109.615 166.966 110.881 168.137 112.283 168.074C113.725 168.009 114.884 167.026 114.896 165.707C114.939 161.749 114.982 157.792 115.017 153.835C115.038 152.086 112.686 150.847 111.017 151.834C106.827 154.301 103.758 157.866 102.065 162.079C101.31 163.949 104.182 165.878 105.981 164.683C106.754 164.176 107.566 163.739 108.434 163.375C107.91 163.594 108.544 163.339 108.668 163.294C108.887 163.217 109.118 163.151 109.34 163.081C109.832 162.942 110.333 162.83 110.838 162.732C110.913 162.713 111.629 162.613 111.308 162.65C110.994 162.686 111.711 162.614 111.79 162.609C112.267 162.575 112.743 162.565 113.224 162.567C113.461 162.573 113.701 162.585 113.94 162.597C114.056 162.604 114.182 162.616 114.298 162.623C114.052 162.591 114.027 162.59 114.214 162.615C114.728 162.697 115.234 162.78 115.733 162.894C117.006 163.191 118.333 162.559 118.812 161.485C119.264 160.477 118.868 159.051 117.672 158.56C115.767 157.783 113.923 156.888 112.15 155.888C111.286 155.394 110.433 154.882 109.611 154.34C109.467 154.246 109.476 154.251 109.64 154.355C109.537 154.286 109.433 154.218 109.33 154.149C109.124 154.012 108.924 153.867 108.725 153.728C108.285 153.417 107.86 153.102 107.441 152.779C106.434 152.015 105.046 151.893 103.985 152.647C102.966 153.377 102.693 154.667 103.367 155.689C104.593 157.553 105.743 159.459 106.794 161.411C107.034 161.859 107.276 162.314 107.501 162.767C107.634 163.031 107.766 163.296 107.901 163.567C107.975 163.723 107.975 163.723 107.899 163.56C107.973 163.716 108.045 163.865 108.119 164.021C108.589 165.015 109.038 166.021 109.466 167.033C109.953 168.182 111.287 169.081 112.722 168.662C113.984 168.285 115.052 166.991 114.537 165.754L114.515 165.789Z" fill="#5584EB"/>
<path d="M37.6862 37.0926C36.1006 37.1023 34.6833 37.8675 34.1704 39.2292C33.7458 40.3537 34.1291 41.7301 35.1603 42.5026C36.3902 43.4242 38.3452 43.566 39.7294 42.8155C40.9924 42.131 41.5438 40.8353 41.2957 39.569C41.1743 38.9407 40.7745 38.3076 40.2258 37.8944C39.5061 37.3517 38.6237 37.0999 37.6862 37.095C37.2009 37.0926 36.7348 37.4764 36.7569 37.9189C36.779 38.3687 37.165 38.7378 37.6862 38.7427C37.7634 38.7427 37.8406 38.7427 37.9206 38.75C37.9592 38.75 37.995 38.7549 38.0336 38.7574C38.1908 38.7647 37.9674 38.75 37.9509 38.7451C38.0998 38.7818 38.2597 38.794 38.4086 38.8356C38.472 38.8527 38.5327 38.8747 38.5961 38.8918C38.7395 38.9334 38.5051 38.8649 38.5079 38.8576C38.5079 38.8576 38.5823 38.8894 38.5934 38.8943C38.7147 38.9529 38.8305 39.0165 38.9463 39.0825C39.0704 39.151 38.7671 38.9432 38.9325 39.0752C38.9767 39.1094 39.018 39.1436 39.0594 39.1803C39.1007 39.217 39.1366 39.2536 39.178 39.2927C39.3296 39.4419 39.0649 39.1387 39.189 39.305C39.2496 39.3881 39.3103 39.4712 39.3627 39.5617C39.4068 39.6374 39.4344 39.7743 39.3572 39.5348C39.3737 39.5885 39.4013 39.6399 39.4206 39.6912C39.4565 39.7915 39.4813 39.8917 39.5061 39.9944C39.5116 40.0164 39.5116 40.0481 39.5199 40.0677C39.5199 40.0677 39.4951 39.8355 39.5033 39.9577C39.5061 40.0139 39.5144 40.0677 39.5144 40.1239C39.5171 40.2217 39.5116 40.3195 39.5033 40.4197C39.4923 40.5982 39.5502 40.2095 39.5088 40.3831C39.4951 40.4442 39.4813 40.5028 39.4647 40.564C39.4372 40.6593 39.3985 40.7522 39.3627 40.8451C39.3269 40.9355 39.4592 40.6666 39.4068 40.7498C39.393 40.7718 39.382 40.7938 39.371 40.8158C39.3434 40.8646 39.3131 40.916 39.28 40.9624C39.2524 41.0064 39.2193 41.0456 39.189 41.0871C39.0677 41.2485 39.3048 40.9795 39.2055 41.07C39.1145 41.1531 39.029 41.2387 38.9325 41.3169C38.7698 41.4489 39.0704 41.2436 38.9463 41.3096C38.8939 41.3365 38.8471 41.3707 38.7947 41.3976C38.7423 41.4269 38.6871 41.4538 38.6347 41.4783C38.6072 41.4905 38.5768 41.5027 38.5492 41.5149C38.3948 41.5883 38.7643 41.4489 38.5934 41.4978C38.4665 41.5345 38.3397 41.5736 38.2101 41.6005C38.1411 41.6152 38.0722 41.6249 38.0033 41.6372C37.8489 41.6616 38.075 41.6249 38.0888 41.6274C38.0502 41.62 37.9619 41.6372 37.9206 41.6396C37.7661 41.6469 37.609 41.6469 37.4545 41.6396C37.3635 41.6347 37.1567 41.5834 37.4242 41.6445C37.347 41.6274 37.267 41.6225 37.1898 41.6054C37.0492 41.5785 36.9168 41.5345 36.7817 41.4978C36.6383 41.4587 36.9885 41.5907 36.7817 41.4978C36.7211 41.4685 36.6576 41.4416 36.5997 41.4098C36.5473 41.3829 36.4977 41.3511 36.4481 41.3218C36.2771 41.224 36.608 41.4489 36.4591 41.3291C36.3626 41.2509 36.2716 41.1702 36.1834 41.0847C36.0482 40.9551 36.3074 41.2485 36.1971 41.1018C36.1668 41.0602 36.1337 41.0187 36.1034 40.9771C36.0731 40.9355 36.0455 40.8915 36.0207 40.8475C36.0069 40.8255 35.9958 40.8035 35.9821 40.7815C35.9104 40.6617 36.0124 40.8255 36.0152 40.8598C36.0041 40.7693 35.9352 40.6691 35.9104 40.5786C35.8938 40.5248 35.88 40.4711 35.869 40.4173C35.8221 40.1973 35.8745 40.5542 35.869 40.4344C35.8635 40.3366 35.8525 40.2388 35.8552 40.1386C35.8552 40.0897 35.8607 40.0408 35.8635 39.9919C35.8773 39.789 35.8166 40.1924 35.8635 39.9919C35.8911 39.877 35.9186 39.7646 35.9628 39.6521C35.971 39.6277 35.9821 39.6057 35.9903 39.5837C36.04 39.4541 35.9765 39.6399 35.9517 39.6594C35.9931 39.6228 36.0152 39.5397 36.0455 39.4932C36.0758 39.4443 36.1089 39.3954 36.1448 39.349C36.1613 39.327 36.1778 39.3074 36.1916 39.2879C36.2771 39.173 36.1668 39.3368 36.1365 39.349C36.2357 39.3074 36.3516 39.1436 36.437 39.0727C36.5997 38.9383 36.2881 39.1558 36.4426 39.0678C36.5005 39.0336 36.5556 38.9994 36.6135 38.9701C36.6797 38.9358 36.7514 38.9065 36.8203 38.8747C36.8975 38.8356 36.9003 38.8918 36.7293 38.9065C36.7652 38.904 36.8093 38.8796 36.8424 38.8674C36.994 38.8185 37.1512 38.7843 37.3112 38.7574C37.3442 38.7525 37.3828 38.75 37.4187 38.7427C37.1678 38.7989 37.3112 38.7574 37.3911 38.75C37.4876 38.7427 37.5841 38.7403 37.6807 38.7403C38.166 38.7378 38.632 38.3638 38.6099 37.9164C38.5879 37.4739 38.2018 37.0901 37.6807 37.0926H37.6862Z" fill="#5584EB"/>
<path d="M6.14361 58.8103C3.50106 58.8266 1.13884 60.1019 0.284029 62.3713C-0.423717 64.2455 0.215091 66.5394 1.9339 67.8269C3.98361 69.363 7.242 69.5993 9.54907 68.3485C11.6539 67.2076 12.5731 65.0482 12.1595 62.9377C11.9572 61.8905 11.2909 60.8353 10.3763 60.1467C9.17681 59.2422 7.70617 58.8225 6.14361 58.8144C5.33476 58.8103 4.55807 59.45 4.59484 60.1874C4.63161 60.9371 5.27502 61.5524 6.14361 61.5605C6.2723 61.5605 6.40097 61.5605 6.53425 61.5727C6.59859 61.5727 6.65834 61.5809 6.72268 61.585C6.98463 61.5972 6.61238 61.5727 6.5848 61.5646C6.83297 61.6257 7.09953 61.6461 7.3477 61.7153C7.4534 61.7439 7.55451 61.7805 7.66022 61.809C7.89919 61.8783 7.50855 61.7642 7.51315 61.752C7.51315 61.752 7.63723 61.805 7.65561 61.8131C7.85783 61.9109 8.05085 62.0168 8.24387 62.1269C8.45068 62.2409 7.94515 61.8946 8.2209 62.1146C8.29443 62.1717 8.36336 62.2287 8.4323 62.2898C8.50124 62.3509 8.56098 62.4121 8.62992 62.4772C8.88269 62.7258 8.44149 62.2206 8.6483 62.4976C8.74941 62.6362 8.85051 62.7747 8.93783 62.9254C9.01137 63.0517 9.05732 63.2799 8.92864 62.8806C8.95621 62.9703 9.00217 63.0558 9.03434 63.1414C9.09409 63.3084 9.13545 63.4755 9.17681 63.6466C9.186 63.6833 9.186 63.7362 9.19979 63.7688C9.19979 63.7688 9.15843 63.3818 9.17221 63.5855C9.17681 63.6792 9.19059 63.7688 9.19059 63.8625C9.19519 64.0255 9.186 64.1885 9.17221 64.3555C9.15383 64.653 9.25034 64.0051 9.18141 64.2944C9.15843 64.3963 9.13545 64.4941 9.10787 64.5959C9.06192 64.7548 8.99758 64.9097 8.93783 65.0645C8.87809 65.2152 9.09868 64.7671 9.01136 64.9056C8.98838 64.9423 8.97 64.9789 8.95162 65.0156C8.90566 65.0971 8.85511 65.1827 8.79996 65.2601C8.754 65.3334 8.69885 65.3986 8.6483 65.4679C8.44609 65.7368 8.84132 65.2886 8.67587 65.4393C8.52421 65.5779 8.38175 65.7205 8.2209 65.8508C7.94975 66.0709 8.45068 65.7286 8.24387 65.8386C8.15655 65.8834 8.07843 65.9405 7.99111 65.9853C7.90379 66.0342 7.81187 66.079 7.72456 66.1198C7.6786 66.1401 7.62804 66.1605 7.58208 66.1809C7.32472 66.3031 7.94055 66.0709 7.65561 66.1524C7.44421 66.2135 7.23281 66.2787 7.01681 66.3235C6.90191 66.3479 6.78702 66.3642 6.67212 66.3846C6.41476 66.4253 6.79161 66.3642 6.81459 66.3683C6.75025 66.3561 6.60319 66.3846 6.53425 66.3887C6.27689 66.4009 6.01494 66.4009 5.75757 66.3887C5.60591 66.3805 5.26123 66.295 5.70702 66.3968C5.57834 66.3683 5.44506 66.3601 5.31638 66.3316C5.08199 66.2868 4.8614 66.2135 4.63621 66.1524C4.39723 66.0872 4.98089 66.3072 4.63621 66.1524C4.5351 66.1035 4.4294 66.0586 4.33289 66.0057C4.24557 65.9609 4.16284 65.9079 4.08012 65.859C3.79518 65.696 4.34668 66.0709 4.09851 65.8712C3.93765 65.7408 3.78599 65.6064 3.63893 65.4638C3.41374 65.2478 3.84573 65.7368 3.6619 65.4923C3.61135 65.423 3.5562 65.3538 3.50565 65.2845C3.4551 65.2152 3.40914 65.1419 3.36778 65.0686C3.3448 65.0319 3.32641 64.9952 3.30344 64.9586C3.18395 64.7589 3.35399 65.0319 3.35859 65.0889C3.34021 64.9382 3.22531 64.7711 3.18395 64.6204C3.15637 64.5307 3.1334 64.4411 3.11502 64.3515C3.03689 63.9848 3.12421 64.5796 3.11502 64.38C3.10582 64.217 3.08744 64.054 3.09203 63.887C3.09203 63.8055 3.10123 63.724 3.10582 63.6425C3.1288 63.3044 3.02769 63.9766 3.10582 63.6425C3.15178 63.451 3.19774 63.2636 3.27127 63.0762C3.28506 63.0354 3.30344 62.9988 3.31722 62.9621C3.39995 62.7462 3.29424 63.0558 3.25288 63.0884C3.32182 63.0273 3.35859 62.8888 3.40914 62.8113C3.4597 62.7299 3.51485 62.6484 3.57459 62.571C3.60216 62.5343 3.62974 62.5017 3.65272 62.4691C3.79519 62.2776 3.61135 62.5506 3.5608 62.571C3.72624 62.5017 3.91927 62.2287 4.06174 62.1106C4.33289 61.8865 3.81356 62.2491 4.07093 62.1024C4.16744 62.0454 4.25936 61.9883 4.35587 61.9394C4.46617 61.8824 4.58565 61.8335 4.70055 61.7805C4.82923 61.7153 4.83382 61.809 4.54889 61.8335C4.60863 61.8294 4.68217 61.7887 4.73732 61.7683C4.99008 61.6868 5.25204 61.6298 5.51859 61.585C5.57374 61.5768 5.63808 61.5727 5.69783 61.5605C5.27961 61.6542 5.51859 61.585 5.65187 61.5727C5.81272 61.5605 5.97357 61.5564 6.13442 61.5564C6.94327 61.5524 7.71995 60.929 7.68319 60.1834C7.64642 59.4459 7.00302 58.8062 6.13442 58.8103H6.14361Z" fill="#5584EB"/>
</svg>
