<svg width="275" height="160" viewBox="0 0 275 160" fill="none" xmlns="http://www.w3.org/2000/svg">
<path d="M35.5042 22.533C27.6598 22.5528 19.7026 24.4479 13.2724 29.0938C7.84428 33.0195 3.82755 38.589 1.71897 44.9408C-0.330328 51.109 -0.542033 57.8816 1.05563 64.1769C2.67305 70.5569 6.21557 76.4398 11.2485 80.7017C17.1339 85.6837 24.5915 88.2001 32.2213 88.7339C40.2576 89.2959 48.644 87.8979 55.6048 83.6926C61.397 80.1961 65.8767 74.8921 68.4651 68.6477C70.9604 62.6263 71.5984 55.9074 70.4495 49.4991C69.295 43.0598 66.2126 36.9707 61.5749 32.3417C56.2992 27.0773 49.2706 23.996 41.9428 22.9764C39.8088 22.6799 37.6607 22.5359 35.5042 22.5302C34.2819 22.5274 34.2791 24.4281 35.5042 24.4309C43.0126 24.4479 50.5408 26.2526 56.7028 30.6811C61.7922 34.3385 65.569 39.6594 67.5082 45.6017C69.4051 51.414 69.6224 57.7404 68.1179 63.6685C66.588 69.7011 63.2826 75.183 58.5489 79.2387C53.022 83.975 45.8636 86.3502 38.6713 86.836C30.9878 87.3528 23.0221 86.0706 16.3604 82.0488C10.9408 78.7755 6.67285 73.7709 4.27918 67.9077C1.97302 62.2564 1.3125 55.93 2.40489 49.9228C3.5114 43.8478 6.34542 38.1371 10.715 33.751C15.7169 28.7295 22.387 25.8318 29.3534 24.8433C31.3886 24.5552 33.4492 24.4394 35.5042 24.4338C36.7264 24.4309 36.7292 22.5302 35.5042 22.533Z" fill="#5584EB"/>
<path d="M22.2741 85.6187C22.1894 85.7317 22.4575 85.3871 22.291 85.5961C22.1837 85.7317 22.0765 85.8672 21.9692 86C21.5768 86.4858 21.1704 86.9631 20.7582 87.4347C19.5134 88.8525 18.1924 90.2053 16.781 91.4565C14.0797 93.8486 9.86818 97.1333 5.9954 95.8228C2.99484 94.8061 2.90734 91.3379 3.20937 88.6294C3.74004 83.8535 5.65949 79.1681 7.68056 74.8526C13.5264 62.3609 21.9607 51.5157 31.3237 41.4839C36.1252 36.3381 41.1157 31.325 46.5326 26.8259C50.0751 23.8859 54.0862 20.6295 58.5743 19.288C59.7824 18.9264 61.1881 18.6666 62.3821 19.1863C63.9883 19.8839 64.7363 21.7338 64.9254 23.4029C65.3517 27.1677 64.0927 31.164 62.7068 34.6237C62.5374 35.0502 62.6108 34.8779 62.4612 35.214C61.9644 36.3211 63.6016 37.2898 64.1012 36.1743C65.4787 33.0986 66.4695 29.7406 66.8025 26.3853C67.1836 22.5387 66.0602 17.4832 61.4591 17.0342C57.4621 16.6444 53.3297 19.4348 50.2303 21.601C44.6441 25.507 39.631 30.2376 34.8436 35.07C24.1596 45.8558 14.3196 57.5285 7.38982 71.1217C4.90018 76.0049 2.59684 81.2129 1.59759 86.6355C1.03023 89.7252 0.618107 93.9898 3.19526 96.3594C6.57688 99.4689 11.5703 97.5795 14.8475 95.3653C18.088 93.1765 20.9191 90.3183 23.3664 87.2766C23.5527 87.045 23.7362 86.8106 23.9141 86.5761C24.6536 85.6018 23.0023 84.6528 22.2741 85.6159V85.6187Z" fill="#5584EB"/>
<path d="M38.245 79.86C38.8265 81.9811 41.6521 81.645 43.2695 81.2637C45.4543 80.7468 47.735 79.7386 49.4089 78.2163C50.1005 77.5865 50.7299 76.7533 50.7864 75.7846C50.84 74.8328 50.2473 73.946 49.4061 73.5308C48.4097 73.0394 47.2636 73.0959 46.1995 73.2738C44.9716 73.4772 43.7804 73.9291 42.6654 74.4713C40.7686 75.392 37.672 77.321 38.2479 79.86C38.5188 81.0519 40.3508 80.5491 40.0798 79.3545C40.0346 79.1568 40.0742 79.3545 40.0742 79.3404C40.0798 79.2726 40.0742 79.1963 40.0798 79.1285C40.0742 79.394 40.0798 79.1568 40.1052 79.0721C40.1306 78.9873 40.2096 78.7953 40.125 78.9845C40.1955 78.8292 40.2802 78.6823 40.3734 78.5411C40.4016 78.4987 40.5371 78.3152 40.4835 78.3829C40.4439 78.4309 40.6331 78.2135 40.6782 78.1626C41.3416 77.4425 41.9823 77.0103 42.863 76.5161C43.7917 75.9936 44.6159 75.6406 45.6406 75.3525C45.8664 75.2875 46.095 75.2311 46.3265 75.183C46.4366 75.1604 46.5495 75.1379 46.6596 75.1181C46.7217 75.1068 46.7838 75.0983 46.8487 75.087C47.0181 75.0616 46.6285 75.1068 46.9193 75.0785C47.1253 75.0588 47.3286 75.0447 47.5346 75.0447C47.6306 75.0447 47.7294 75.0475 47.8254 75.0531C47.8649 75.0531 47.9044 75.0588 47.9467 75.0616C48.198 75.0729 47.8282 75.0362 47.9637 75.0616C48.1443 75.0927 48.3165 75.1379 48.4915 75.1943C48.6581 75.2452 48.3701 75.1153 48.5113 75.2056C48.5508 75.2311 48.7936 75.3836 48.6891 75.3045C48.5819 75.2226 48.7484 75.3694 48.7823 75.3977C48.8952 75.4909 48.7202 75.2508 48.8077 75.4288C48.8387 75.4937 48.8811 75.5558 48.9121 75.6208C48.8246 75.4457 48.8754 75.5445 48.9036 75.6575C48.9375 75.7903 48.8895 75.4287 48.898 75.6745C48.9036 75.8722 48.9121 75.6547 48.9093 75.6688C48.8924 75.7309 48.8754 75.7987 48.8613 75.8637C48.8161 76.084 48.9121 75.8016 48.8444 75.9174C48.7682 76.0501 48.6948 76.1828 48.6073 76.3099C48.5141 76.4483 48.6073 76.3099 48.6298 76.2873C48.5988 76.324 48.5706 76.3636 48.5367 76.4003C48.4689 76.4737 48.4012 76.55 48.3306 76.6234C47.7209 77.2504 47.1536 77.6091 46.3096 78.0723C45.4063 78.5665 44.6865 78.8687 43.707 79.1766C43.1933 79.3375 42.6711 79.4703 42.1404 79.5635C42.0839 79.572 41.765 79.62 41.9597 79.5945C41.8497 79.6087 41.7367 79.62 41.6267 79.6313C41.4065 79.6482 41.1863 79.6595 40.9633 79.651C40.8673 79.6482 40.7714 79.6397 40.6782 79.6341C40.4524 79.6228 40.8081 79.6793 40.5992 79.62C40.5117 79.5945 40.4185 79.572 40.3282 79.5522C40.108 79.507 40.3903 79.6058 40.2887 79.5437C40.2294 79.507 40.1645 79.4703 40.1024 79.4364C40.331 79.555 40.1476 79.4223 40.1024 79.4223C40.0516 79.4223 40.0826 79.4477 40.156 79.4985C40.1278 79.4787 40.1052 79.4223 40.0911 79.394C40.0008 79.2133 40.1504 79.6002 40.0854 79.3573C39.7637 78.1796 37.9289 78.6795 38.2535 79.8629L38.245 79.86Z" fill="#5584EB"/>
<path d="M26.9485 73.0818C27.4566 74.9938 29.5962 75.2226 31.2277 74.8272C33.0089 74.3979 34.8098 73.2795 35.778 71.6922C36.7462 70.1078 36.6417 67.631 34.6912 66.8684C33.0936 66.2442 31.1289 67.148 29.8248 68.0518C28.2554 69.1391 26.4573 70.9862 26.9485 73.079C27.0642 73.5789 27.6372 73.8754 28.1171 73.7427C28.628 73.6015 28.899 73.0761 28.7804 72.5734C28.7522 72.4463 28.7945 72.3334 28.7691 72.5649C28.7748 72.5056 28.7607 72.4379 28.7607 72.3785C28.7607 72.3447 28.7663 72.0792 28.7607 72.2599C28.755 72.4237 28.7748 72.195 28.7889 72.1385C28.8228 71.9944 28.8792 71.8617 28.9216 71.7233C28.8425 71.9803 28.9187 71.7403 28.9526 71.6725C28.9921 71.5962 29.0317 71.5228 29.074 71.4494C29.1587 71.3081 29.2518 71.1726 29.345 71.037C29.4805 70.8478 29.2518 71.1387 29.4071 70.9579C29.4748 70.8789 29.5426 70.797 29.616 70.7207C29.8615 70.4496 30.1325 70.2067 30.412 69.9694C30.4487 69.9384 30.4882 69.9073 30.5277 69.8762C30.3753 70.0005 30.4769 69.913 30.5136 69.8875C30.5954 69.8282 30.6745 69.7689 30.7563 69.7124C30.9201 69.5995 31.0866 69.4893 31.2588 69.3876C31.4169 69.2916 31.5778 69.2012 31.7415 69.1165C31.8177 69.077 31.8939 69.0403 31.9701 69.0035C32.0209 68.9781 32.2834 68.8652 32.1818 68.9075C32.0689 68.9527 32.2863 68.868 32.3286 68.8539C32.4133 68.8228 32.5008 68.7917 32.5855 68.7663C32.752 68.7126 32.9214 68.6675 33.0907 68.6307C33.1613 68.6166 33.2347 68.6081 33.3053 68.5912C33.4295 68.5601 33.1105 68.5968 33.2347 68.5997C33.2742 68.5997 33.3137 68.5912 33.3532 68.5884C33.5057 68.5799 33.6553 68.5827 33.8077 68.5884C34.0307 68.594 33.6468 68.5432 33.7964 68.5855C33.8613 68.6053 33.9319 68.6138 33.9997 68.6336C34.0448 68.6477 34.2283 68.7211 34.0759 68.6533C33.9178 68.5827 34.1436 68.6985 34.1831 68.7183C34.3638 68.8143 34.1267 68.6392 34.1888 68.7183C34.2227 68.7607 34.2735 68.8058 34.313 68.8426C34.4541 68.9725 34.2509 68.7098 34.3045 68.8341C34.3327 68.9019 34.3807 68.9894 34.4231 69.0487C34.488 69.1419 34.3779 68.868 34.392 68.9809C34.3977 69.0205 34.4202 69.0572 34.4287 69.0967C34.4485 69.1674 34.4654 69.2408 34.4823 69.3114C34.4908 69.3566 34.4993 69.4018 34.5049 69.447C34.4993 69.4131 34.4993 69.2323 34.4936 69.3933C34.4908 69.4808 34.5021 69.5684 34.4993 69.6559C34.4993 69.7435 34.488 69.8282 34.4795 69.9158C34.4993 69.7266 34.488 69.8452 34.4626 69.9525C34.4428 70.0372 34.4202 70.122 34.3948 70.2039C34.3779 70.2547 34.2847 70.4891 34.3384 70.3677C34.3948 70.2349 34.2735 70.4948 34.2565 70.5258C34.2198 70.5964 34.1803 70.6642 34.1408 70.732C34.0928 70.8111 34.042 70.8845 33.9912 70.9608C33.9658 70.9975 33.9376 71.0342 33.9093 71.0737C33.9488 71.0173 34.0053 70.9636 33.9291 71.0455C33.6637 71.3307 33.4012 71.5962 33.1077 71.8504C32.9807 71.9606 33.229 71.7685 33.0371 71.9041C32.9665 71.9549 32.896 72.0057 32.8254 72.0537C32.6617 72.1639 32.4895 72.2684 32.3173 72.3672C32.1451 72.4633 31.9673 72.5508 31.7895 72.6384C31.7556 72.6553 31.7217 72.6694 31.6878 72.6836C31.5636 72.7429 31.8403 72.6243 31.7132 72.6751C31.6116 72.7146 31.51 72.7542 31.4084 72.7909C31.0358 72.9236 30.6575 73.0112 30.268 73.0874C30.1015 73.1213 30.3019 73.0818 30.3273 73.079C30.2737 73.0846 30.22 73.0903 30.1692 73.0959C30.0761 73.1044 29.9829 73.1072 29.8898 73.11C29.7994 73.11 29.7091 73.11 29.6188 73.1044C29.5652 73.1016 29.3252 73.0648 29.4861 73.0959C29.6527 73.127 29.3845 73.0733 29.3422 73.062C29.2744 73.0451 29.1813 72.9942 29.1163 72.9914C29.0373 72.9914 29.2123 73.0309 29.2236 73.0394C29.1841 73.0112 29.1305 72.9971 29.0881 72.9716C29.0373 72.9406 28.978 72.8869 28.9216 72.8671C29.122 72.9406 29.0514 72.9886 29.0006 72.9265C28.9752 72.8954 28.9413 72.87 28.9131 72.8417C28.8962 72.8248 28.8821 72.8022 28.8651 72.7881C28.7579 72.6977 28.947 72.9575 28.8962 72.8248C28.8764 72.7711 28.8312 72.6949 28.7974 72.6497C28.9216 72.8135 28.851 72.8135 28.8341 72.7316C28.8228 72.6807 28.8002 72.6271 28.7861 72.5762C28.4728 71.3957 26.638 71.8956 26.9541 73.0818H26.9485Z" fill="#5584EB"/>
<path d="M44.2349 64.5412C44.2462 65.4732 44.6131 66.312 45.3809 66.8599C46.0273 67.3203 46.8854 67.4643 47.6645 67.422C49.4343 67.3259 51.2945 66.4871 52.4772 65.1484C53.6204 63.8549 54.3063 61.5503 52.8301 60.2059C51.5401 59.0339 49.5133 59.2994 48.0286 59.9094C46.112 60.6974 44.2631 62.3129 44.2349 64.5412C44.2207 65.7641 46.1204 65.7669 46.1346 64.5412C46.1346 64.4508 46.143 64.3633 46.1458 64.2757C46.1515 64.1063 46.1007 64.4678 46.1543 64.2362C46.1966 64.0639 46.2418 63.9001 46.3011 63.7335C46.3378 63.6346 46.27 63.8069 46.27 63.8097C46.2898 63.7702 46.3067 63.7306 46.3265 63.6911C46.3632 63.6233 46.3971 63.5527 46.4366 63.4877C46.4761 63.42 46.5184 63.355 46.5608 63.2872C46.5862 63.2505 46.6144 63.2138 46.637 63.1771C46.7301 63.0274 46.558 63.2675 46.6313 63.1771C46.8685 62.8975 47.1225 62.6546 47.3991 62.4145C47.5262 62.3044 47.2693 62.5021 47.4641 62.3693C47.5318 62.3213 47.6024 62.2733 47.6729 62.2253C47.8338 62.118 48.0004 62.0191 48.1697 61.9288C48.3193 61.8497 48.4718 61.7791 48.6242 61.7056C48.7794 61.6294 48.6242 61.7056 48.596 61.7169C48.6411 61.7 48.6835 61.6802 48.7286 61.6633C48.819 61.6294 48.9065 61.5983 48.9968 61.5672C49.3383 61.4515 49.6827 61.3865 50.0327 61.3159C50.14 61.2933 49.9452 61.3272 49.9424 61.3272C49.9847 61.3272 50.0299 61.3159 50.0723 61.3131C50.1456 61.3074 50.2219 61.3018 50.2952 61.2989C50.459 61.2933 50.6227 61.2989 50.7864 61.3074C51.0207 61.3187 50.6368 61.2679 50.7949 61.3074C50.8683 61.3244 50.9445 61.3357 51.0179 61.3526C51.08 61.3667 51.1421 61.3865 51.2042 61.4063C51.238 61.4147 51.2719 61.4402 51.3058 61.443C51.3876 61.4486 51.1138 61.3357 51.2493 61.4204C51.3509 61.4825 51.4554 61.539 51.557 61.6068C51.4272 61.5221 51.4469 61.5079 51.5372 61.6068C51.6304 61.7113 51.6586 61.7932 51.5683 61.6266C51.5965 61.6774 51.6332 61.7282 51.6643 61.7791C51.749 61.9203 51.6868 61.9005 51.6671 61.7706C51.6756 61.8384 51.7151 61.9175 51.732 61.9852C51.7659 62.1208 51.7405 62.2168 51.749 62.0276C51.7433 62.1914 51.7574 62.3552 51.749 62.519C51.7405 62.7393 51.7885 62.3976 51.7433 62.5614C51.7179 62.6574 51.701 62.7534 51.6727 62.8466C51.6502 62.9201 51.6219 62.9907 51.5993 63.0641C51.5514 63.2223 51.6784 62.9172 51.5768 63.1093C51.4921 63.2674 51.4102 63.4228 51.3086 63.5696C51.255 63.6487 51.1618 63.7673 51.2776 63.6233C51.2183 63.6939 51.1618 63.7645 51.0997 63.8323C50.9755 63.9707 50.8429 64.1034 50.7045 64.2277C50.6424 64.2842 50.5775 64.335 50.5154 64.3887C50.3489 64.5271 50.5916 64.3435 50.4533 64.4367C50.2924 64.544 50.1372 64.6542 49.9706 64.753C49.8267 64.8406 49.6771 64.9197 49.5246 64.9959C49.4371 65.0383 49.3496 65.0778 49.2621 65.1202C49.2198 65.1399 49.0928 65.188 49.2904 65.1089C49.2452 65.1258 49.2029 65.1456 49.1577 65.1625C48.819 65.2868 48.4746 65.3941 48.1189 65.4647C48.0314 65.4817 47.9411 65.493 47.8536 65.5099C47.7237 65.5353 48.0399 65.5014 47.91 65.5014C47.8564 65.5014 47.8 65.5127 47.7491 65.5156C47.5713 65.5297 47.3963 65.5325 47.2185 65.524C47.1677 65.524 46.9164 65.5014 47.0773 65.5184C47.2382 65.5325 46.9701 65.4986 46.9221 65.4873C46.8487 65.4704 46.7781 65.4534 46.7076 65.4308C46.6737 65.4195 46.6398 65.4054 46.6059 65.3969C46.4535 65.3574 46.7443 65.4817 46.6624 65.4224C46.6031 65.3772 46.5213 65.3518 46.4563 65.3122C46.3406 65.2416 46.3237 65.1823 46.445 65.3122C46.3999 65.2642 46.3463 65.219 46.3011 65.1738C46.1374 65.0129 46.3604 65.3094 46.2813 65.1456C46.2475 65.0778 46.2108 65.0016 46.1684 64.9394C46.2672 65.0948 46.2108 65.0496 46.1712 64.9084C46.1515 64.8321 46.143 64.7558 46.1233 64.6796C46.1938 64.9451 46.1289 64.6485 46.1289 64.5525C46.1148 63.3296 44.2151 63.3268 44.2292 64.5525L44.2349 64.5412Z" fill="#5584EB"/>
<path d="M58.8735 41.0602C60.6857 43.2547 61.9616 45.8558 62.6418 48.6152C62.9354 49.8013 64.7673 49.2986 64.4738 48.1096C63.7088 45.0199 62.2382 42.1645 60.2171 39.7159C59.8897 39.3205 59.2122 39.377 58.8735 39.7159C58.4811 40.1085 58.5461 40.662 58.8735 41.0602Z" fill="#5584EB"/>
<path d="M63.8105 53.6169V55.1223C63.8105 55.3651 63.9177 55.6222 64.0899 55.7944C64.2536 55.9582 64.5246 56.0825 64.7617 56.074C65.0073 56.0627 65.2613 55.9837 65.4335 55.7944C65.6029 55.608 65.713 55.3793 65.713 55.1223V53.6169C65.713 53.374 65.6057 53.117 65.4335 52.9448C65.2698 52.7809 64.9988 52.6567 64.7617 52.6651C64.5161 52.6764 64.2621 52.7555 64.0899 52.9448C63.9205 53.1312 63.8105 53.3599 63.8105 53.6169Z" fill="#5584EB"/>
<path d="M8.05316 43.1728C7.69186 44.4324 7.32772 45.692 6.96642 46.9517C6.8281 47.429 7.13296 48.0079 7.62976 48.1209C8.13785 48.2367 8.65158 47.9684 8.79836 47.4572C9.15967 46.1976 9.5238 44.938 9.88511 43.6783C10.0234 43.201 9.71857 42.6221 9.22177 42.5091C8.71368 42.3933 8.19995 42.6616 8.05316 43.1728Z" fill="#5584EB"/>
<path d="M6.30025 54.6139C6.48091 55.6306 6.66438 56.6474 6.84504 57.6641C6.88456 57.8872 7.09344 58.1216 7.28256 58.2318C7.4858 58.3504 7.78501 58.4012 8.01365 58.3278C8.24229 58.2544 8.46528 58.1103 8.58101 57.89C8.70521 57.6528 8.72497 57.4212 8.67699 57.1586L8.1322 54.1084C8.09268 53.8852 7.8838 53.6508 7.69468 53.5407C7.49144 53.4221 7.19223 53.3712 6.96359 53.4446C6.73495 53.5181 6.51196 53.6621 6.39622 53.8824C6.27203 54.1197 6.25227 54.3512 6.30025 54.6139Z" fill="#5584EB"/>
<path d="M11.9852 46.7342C11.765 47.2341 11.5929 47.734 11.5166 48.2762C11.4743 48.5813 11.4376 48.8835 11.4404 49.1885C11.4404 49.4963 11.48 49.7985 11.5251 50.1007C11.5562 50.3182 11.782 50.5639 11.9626 50.6684C12.1659 50.787 12.4651 50.8379 12.6937 50.7644C12.9224 50.691 13.1454 50.547 13.2611 50.3267C13.2921 50.2504 13.326 50.1741 13.3571 50.1007C13.4022 49.9313 13.4022 49.7646 13.3571 49.5952L13.3514 49.5472C13.3627 49.6319 13.374 49.7166 13.3853 49.7985C13.3288 49.3749 13.3288 48.9484 13.3853 48.5248L13.3514 48.7761C13.4107 48.3525 13.5208 47.943 13.6873 47.5476L13.5914 47.7735C13.6026 47.7453 13.6168 47.7142 13.628 47.686C13.7353 47.4431 13.7974 47.22 13.724 46.9545C13.6619 46.7342 13.4926 46.4941 13.2865 46.3868C13.0663 46.271 12.7982 46.2117 12.5554 46.2908C12.3352 46.3614 12.0868 46.5054 11.988 46.7285L11.9852 46.7342Z" fill="#5584EB"/>
<path d="M50.4699 142.776C55.1323 140.583 58.5271 136.166 59.4418 131.111C59.7844 129.228 56.9309 128.438 56.5162 130.348C55.857 133.391 55.7826 136.826 57.5906 139.524C59.2578 142.015 62.1116 143.374 65.0773 142.826C64.8049 141.859 64.5326 140.892 64.2547 139.928C56.9332 142.863 51.4466 149.497 50.3032 157.333C50.078 158.872 52.251 160.118 53.0762 158.467C54.455 155.709 55.1436 152.66 54.984 149.57C54.9073 148.049 54.6401 146.51 54.1781 145.059C53.9683 144.404 53.7138 143.76 53.4318 143.133C53.2577 142.75 53.0781 142.371 52.8734 141.998L52.6676 141.631C52.4444 141.009 52.1916 141.142 51.9145 142.025C51.408 142.027 50.9014 142.029 50.3949 142.031C50.2655 141.637 50.1405 141.244 50.01 140.854C50.4883 140.48 50.971 140.107 51.4504 139.729C51.4024 139.735 51.349 139.744 51.301 139.75C49.4053 140.022 49.4229 143.034 51.347 142.76L51.4964 142.739C52.1475 142.645 52.7769 142.315 52.9368 141.613C53.3169 139.925 51.2923 138.413 49.9134 139.73C48.3367 141.235 50.3301 143.418 50.9162 144.874C52.4805 148.755 52.3293 153.215 50.4635 156.95C51.386 157.329 52.3129 157.709 53.2365 158.084C54.2185 151.366 58.7069 145.372 65.0839 142.819C66.8779 142.1 66.1981 139.562 64.2613 139.92C62.3878 140.268 60.5938 138.922 59.7967 137.315C58.8433 135.399 59.013 133.129 59.4472 131.108L56.5216 130.345C55.7319 134.707 52.9645 138.285 48.9388 140.173C47.1776 140.998 48.7251 143.591 50.471 142.771L50.4699 142.776Z" fill="#5584EB"/>
<path d="M143.519 71C134.273 71.0715 125.738 75.8316 122.717 84.8847C120.152 92.5581 122.386 101.661 128.655 106.91C135.946 113.017 147.817 113.649 155.901 108.713C163.078 104.332 166.435 95.8232 165.026 87.666C163.204 77.1398 153.75 71.0769 143.519 71C141.136 70.9835 141.131 74.6828 143.519 74.6993C151.108 74.7543 158.345 78.47 160.799 86.0115C162.874 92.3877 161.141 99.6599 156.011 104.09C150.018 109.268 139.832 109.598 133.151 105.602C127.339 102.128 124.439 95.1086 125.611 88.5015C127.191 79.6463 134.879 74.7652 143.519 74.6993C145.902 74.6828 145.907 70.9835 143.519 71Z" fill="#5584EB"/>
<path d="M122.122 93.2837C119.189 96.0265 113.62 101.435 115.315 105.915C116.52 109.098 120.763 109.197 123.608 108.839C126.827 108.433 129.953 107.438 132.991 106.333C140.855 103.475 148.455 99.7148 155.637 95.4274C158.835 93.52 161.961 91.4753 164.883 89.1611C166.787 87.655 168.884 85.9236 170.034 83.7304C171.718 80.5148 169.263 77.4366 166.314 76.0075C163.292 74.5509 159.512 74.5179 156.287 75.2874C153.97 75.8426 154.949 79.41 157.272 78.8548C159.385 78.3491 161.856 78.2996 163.92 79.0032C164.619 79.2396 165.279 79.5749 165.84 80.0586C166.116 80.2949 166.369 80.5588 166.583 80.8501C166.666 80.96 167.475 81.8505 166.969 81.4547C166.969 81.4547 167.013 81.4218 166.969 81.4932C166.809 81.7681 166.941 81.7461 166.616 82.2573C164.079 86.2314 158.736 89.2161 154.696 91.6786C148.505 95.4494 141.984 98.7914 135.264 101.512C132.446 102.656 129.574 103.705 126.629 104.475C124.549 105.019 121.803 105.767 119.668 105.08C118.666 104.755 118.611 104.629 118.881 103.623C119.205 102.419 120.036 101.292 120.768 100.308C121.941 98.7254 123.311 97.2413 124.753 95.9001C126.497 94.2731 123.872 91.6567 122.133 93.2837H122.122Z" fill="#5584EB"/>
<path d="M115.264 14.2836C113 14.2976 110.976 15.3902 110.243 17.3346C109.637 18.9404 110.184 20.9057 111.657 22.0088C113.413 23.3249 116.205 23.5273 118.181 22.4557C119.985 21.4782 120.772 19.6281 120.418 17.8198C120.245 16.9227 119.674 16.0186 118.89 15.4286C117.862 14.6536 116.602 14.2941 115.264 14.2871C114.571 14.2836 113.905 14.8317 113.937 15.4635C113.968 16.1058 114.519 16.6329 115.264 16.6399C115.374 16.6399 115.484 16.6399 115.598 16.6504C115.653 16.6504 115.705 16.6574 115.76 16.6609C115.984 16.6713 115.665 16.6504 115.642 16.6434C115.854 16.6958 116.083 16.7132 116.295 16.7726C116.386 16.797 116.472 16.8284 116.563 16.8529C116.768 16.9122 116.433 16.8145 116.437 16.804C116.437 16.804 116.543 16.8494 116.559 16.8564C116.732 16.9401 116.898 17.0309 117.063 17.1252C117.24 17.2229 116.807 16.9262 117.043 17.1147C117.106 17.1636 117.165 17.2124 117.225 17.2648C117.284 17.3171 117.335 17.3695 117.394 17.4254C117.61 17.6383 117.232 17.2054 117.41 17.4428C117.496 17.5615 117.583 17.6802 117.658 17.8094C117.721 17.9176 117.76 18.1131 117.65 17.771C117.673 17.8478 117.713 17.9211 117.74 17.9944C117.792 18.1375 117.827 18.2806 117.862 18.4272C117.87 18.4587 117.87 18.504 117.882 18.532C117.882 18.532 117.847 18.2003 117.858 18.3749C117.862 18.4552 117.874 18.532 117.874 18.6122C117.878 18.7519 117.87 18.8915 117.858 19.0346C117.843 19.2895 117.925 18.7344 117.866 18.9823C117.847 19.0695 117.827 19.1533 117.803 19.2406C117.764 19.3767 117.709 19.5094 117.658 19.642C117.607 19.7712 117.795 19.3872 117.721 19.5059C117.701 19.5373 117.685 19.5687 117.67 19.6002C117.63 19.67 117.587 19.7433 117.54 19.8096C117.5 19.8724 117.453 19.9283 117.41 19.9876C117.236 20.218 117.575 19.834 117.433 19.9632C117.303 20.0819 117.181 20.2041 117.043 20.3158C116.811 20.5043 117.24 20.211 117.063 20.3053C116.988 20.3437 116.921 20.3926 116.847 20.431C116.772 20.4729 116.693 20.5113 116.618 20.5462C116.579 20.5636 116.535 20.5811 116.496 20.5985C116.276 20.7033 116.803 20.5043 116.559 20.5741C116.378 20.6265 116.197 20.6823 116.012 20.7207C115.913 20.7417 115.815 20.7556 115.716 20.7731C115.496 20.808 115.819 20.7556 115.839 20.7591C115.783 20.7486 115.657 20.7731 115.598 20.7766C115.378 20.787 115.153 20.787 114.933 20.7766C114.803 20.7696 114.508 20.6963 114.89 20.7835C114.779 20.7591 114.665 20.7521 114.555 20.7277C114.354 20.6893 114.165 20.6265 113.972 20.5741C113.767 20.5182 114.267 20.7067 113.972 20.5741C113.886 20.5322 113.795 20.4938 113.712 20.4484C113.637 20.41 113.567 20.3646 113.496 20.3228C113.252 20.1831 113.724 20.5043 113.511 20.3332C113.374 20.2215 113.244 20.1063 113.118 19.9841C112.925 19.7991 113.295 20.218 113.137 20.0086C113.094 19.9492 113.047 19.8899 113.004 19.8305C112.96 19.7712 112.921 19.7084 112.885 19.6455C112.866 19.6141 112.85 19.5827 112.83 19.5513C112.728 19.3802 112.874 19.6141 112.878 19.663C112.862 19.5338 112.763 19.3907 112.728 19.2615C112.704 19.1847 112.685 19.1079 112.669 19.0311C112.602 18.717 112.677 19.2266 112.669 19.0556C112.661 18.9159 112.645 18.7763 112.649 18.6332C112.649 18.5634 112.657 18.4936 112.661 18.4237C112.681 18.134 112.594 18.71 112.661 18.4237C112.7 18.2597 112.74 18.0991 112.803 17.9385C112.815 17.9036 112.83 17.8722 112.842 17.8408C112.913 17.6558 112.822 17.9211 112.787 17.949C112.846 17.8966 112.878 17.7779 112.921 17.7116C112.964 17.6418 113.011 17.572 113.063 17.5057C113.086 17.4742 113.11 17.4463 113.13 17.4184C113.252 17.2543 113.094 17.4882 113.051 17.5057C113.193 17.4463 113.358 17.2124 113.48 17.1112C113.712 16.9192 113.267 17.2299 113.488 17.1042C113.571 17.0553 113.649 17.0065 113.732 16.9646C113.826 16.9157 113.929 16.8738 114.027 16.8284C114.138 16.7726 114.141 16.8529 113.897 16.8738C113.949 16.8703 114.012 16.8354 114.059 16.818C114.275 16.7481 114.5 16.6993 114.728 16.6609C114.775 16.6539 114.831 16.6504 114.882 16.6399C114.523 16.7202 114.728 16.6609 114.842 16.6504C114.98 16.6399 115.118 16.6364 115.256 16.6364C115.949 16.6329 116.614 16.0988 116.583 15.46C116.551 14.8282 116 14.2801 115.256 14.2836H115.264Z" fill="#5584EB"/>
<path d="M269.264 69.5098C267 69.5237 264.976 70.6163 264.243 72.5607C263.637 74.1665 264.184 76.1319 265.657 77.235C267.413 78.551 270.205 78.7535 272.181 77.6818C273.985 76.7044 274.772 74.8542 274.418 73.046C274.245 72.1488 273.674 71.2447 272.89 70.6547C271.862 69.8798 270.602 69.5202 269.264 69.5132C268.571 69.5098 267.905 70.0578 267.937 70.6897C267.968 71.332 268.519 71.8591 269.264 71.8661C269.374 71.8661 269.484 71.8661 269.598 71.8765C269.653 71.8765 269.705 71.8835 269.76 71.887C269.984 71.8975 269.665 71.8765 269.642 71.8696C269.854 71.9219 270.083 71.9394 270.295 71.9987C270.386 72.0232 270.472 72.0546 270.563 72.079C270.768 72.1383 270.433 72.0406 270.437 72.0301C270.437 72.0301 270.543 72.0755 270.559 72.0825C270.732 72.1663 270.898 72.257 271.063 72.3513C271.24 72.449 270.807 72.1523 271.043 72.3408C271.106 72.3897 271.165 72.4386 271.225 72.4909C271.284 72.5433 271.335 72.5956 271.394 72.6515C271.61 72.8644 271.232 72.4316 271.41 72.669C271.496 72.7876 271.583 72.9063 271.658 73.0355C271.721 73.1437 271.76 73.3392 271.65 72.9971C271.673 73.0739 271.713 73.1472 271.74 73.2205C271.792 73.3636 271.827 73.5068 271.862 73.6534C271.87 73.6848 271.87 73.7302 271.882 73.7581C271.882 73.7581 271.847 73.4265 271.858 73.601C271.862 73.6813 271.874 73.7581 271.874 73.8384C271.878 73.978 271.87 74.1176 271.858 74.2608C271.843 74.5156 271.925 73.9606 271.866 74.2084C271.847 74.2957 271.827 74.3795 271.803 74.4667C271.764 74.6029 271.709 74.7355 271.658 74.8682C271.607 74.9973 271.795 74.6133 271.721 74.732C271.701 74.7635 271.685 74.7949 271.67 74.8263C271.63 74.8961 271.587 74.9694 271.54 75.0357C271.5 75.0986 271.453 75.1544 271.41 75.2138C271.236 75.4442 271.575 75.0602 271.433 75.1893C271.303 75.308 271.181 75.4302 271.043 75.5419C270.811 75.7304 271.24 75.4372 271.063 75.5314C270.988 75.5698 270.921 75.6187 270.847 75.6571C270.772 75.699 270.693 75.7374 270.618 75.7723C270.579 75.7898 270.535 75.8072 270.496 75.8247C270.276 75.9294 270.803 75.7304 270.559 75.8002C270.378 75.8526 270.197 75.9084 270.012 75.9468C269.913 75.9678 269.815 75.9818 269.716 75.9992C269.496 76.0341 269.819 75.9818 269.839 75.9852C269.783 75.9748 269.657 75.9992 269.598 76.0027C269.378 76.0132 269.153 76.0132 268.933 76.0027C268.803 75.9957 268.508 75.9224 268.89 76.0097C268.779 75.9852 268.665 75.9783 268.555 75.9538C268.354 75.9154 268.165 75.8526 267.972 75.8002C267.767 75.7444 268.267 75.9329 267.972 75.8002C267.886 75.7583 267.795 75.7199 267.712 75.6746C267.637 75.6362 267.567 75.5908 267.496 75.5489C267.252 75.4093 267.724 75.7304 267.511 75.5594C267.374 75.4477 267.244 75.3325 267.118 75.2103C266.925 75.0253 267.295 75.4442 267.137 75.2347C267.094 75.1754 267.047 75.116 267.004 75.0567C266.96 74.9973 266.921 74.9345 266.885 74.8717C266.866 74.8403 266.85 74.8088 266.83 74.7774C266.728 74.6064 266.874 74.8403 266.878 74.8891C266.862 74.76 266.763 74.6168 266.728 74.4877C266.704 74.4109 266.685 74.3341 266.669 74.2573C266.602 73.9431 266.677 74.4528 266.669 74.2817C266.661 74.1421 266.645 74.0024 266.649 73.8593C266.649 73.7895 266.657 73.7197 266.661 73.6499C266.681 73.3601 266.594 73.9361 266.661 73.6499C266.7 73.4858 266.74 73.3252 266.803 73.1647C266.815 73.1297 266.83 73.0983 266.842 73.0669C266.913 72.8819 266.822 73.1472 266.787 73.1751C266.846 73.1228 266.878 73.0041 266.921 72.9377C266.964 72.8679 267.011 72.7981 267.063 72.7318C267.086 72.7004 267.11 72.6724 267.13 72.6445C267.252 72.4804 267.094 72.7143 267.051 72.7318C267.193 72.6724 267.358 72.4386 267.48 72.3373C267.712 72.1453 267.267 72.456 267.488 72.3303C267.571 72.2815 267.649 72.2326 267.732 72.1907C267.826 72.1418 267.929 72.0999 268.027 72.0546C268.138 71.9987 268.141 72.079 267.897 72.0999C267.949 72.0965 268.012 72.0615 268.059 72.0441C268.275 71.9743 268.5 71.9254 268.728 71.887C268.775 71.88 268.831 71.8765 268.882 71.8661C268.523 71.9464 268.728 71.887 268.842 71.8765C268.98 71.8661 269.118 71.8626 269.256 71.8626C269.949 71.8591 270.614 71.325 270.583 70.6862C270.551 70.0543 270 69.5063 269.256 69.5098H269.264Z" fill="#5584EB"/>
<path d="M222.416 15.1724C225.652 11.9797 228.883 8.79571 232.119 5.60304L227.59 3.98244C227.493 8.31001 227.397 12.6376 227.299 16.9584L232.182 15.7276C229.399 11.9804 226.621 8.22458 223.838 4.4774L220.301 7.74592C224.429 10.2018 229.458 11.4494 234.406 11.2926L232.489 7.30524C232.261 7.50812 232.033 7.71099 231.793 7.9023C231.76 7.92524 231.163 8.37377 231.586 8.07068C231.15 8.38429 230.678 8.66322 230.201 8.92868C229.725 9.19415 229.218 9.4163 228.722 9.64328C228.202 9.87595 229.078 9.53879 228.482 9.73279C228.217 9.82125 227.953 9.90972 227.686 9.99145C227.189 10.1387 226.685 10.2658 226.182 10.3708C225.869 10.4351 225.552 10.4859 225.235 10.5367C225.706 10.4614 225.148 10.5441 224.981 10.557C224.419 10.6042 223.858 10.6293 223.296 10.6255C223.051 10.6218 222.814 10.6163 222.574 10.604C222.475 10.5998 221.51 10.5016 222.051 10.5687C220.688 10.3961 219.161 10.9118 218.841 12.2573C218.574 13.386 219.281 14.9452 220.735 15.1237C226.447 15.8357 232.185 14.2513 236.274 10.5745C237.841 9.1619 236.617 6.51183 234.358 6.5871C233.247 6.61999 232.141 6.59335 231.038 6.47163C231.577 6.53197 230.883 6.4452 230.772 6.42948C230.458 6.38523 230.148 6.33236 229.837 6.27276C229.336 6.18086 228.829 6.06876 228.335 5.94613C227.841 5.82351 227.348 5.6788 226.868 5.52357C226.722 5.47315 226.569 5.42463 226.423 5.37421C226.68 5.46917 226.671 5.46434 226.386 5.3616C226.172 5.27735 225.951 5.19499 225.735 5.10401C224.732 4.68103 223.763 4.19093 222.842 3.64527C220.637 2.33284 217.895 5.00846 219.305 6.91381C222.088 10.661 224.866 14.4168 227.65 18.164C229.087 20.1059 232.478 19.2947 232.533 16.9331C232.629 12.6056 232.725 8.27799 232.823 3.95716C232.868 1.92495 229.821 0.824924 228.294 2.33655C225.058 5.52922 221.827 8.71326 218.591 11.9059C217.669 12.8144 217.581 14.3778 218.667 15.238C219.71 16.0655 221.404 16.1546 222.394 15.1781L222.416 15.1724Z" fill="#5584EB"/>
</svg>
